<?xml version="1.0" encoding="UTF-8" standalone="no"?>
<!DOCTYPE svg PUBLIC "-//W3C//DTD SVG 1.1//EN" "http://www.w3.org/Graphics/SVG/1.1/DTD/svg11.dtd">
<svg width="100%" height="100%" viewBox="0 0 1024 1024" version="1.1" xmlns="http://www.w3.org/2000/svg" xmlns:xlink="http://www.w3.org/1999/xlink" xml:space="preserve" xmlns:serif="http://www.serif.com/" style="fill-rule:evenodd;clip-rule:evenodd;stroke-linejoin:round;stroke-miterlimit:2;">
    <g id="rounded" transform="matrix(3.30323,0,0,3.01176,-297.29,-210.824)">
        <path d="M400,104L400,376C400,394.765 386.109,410 369,410L121,410C103.891,410 90,394.765 90,376L90,104C90,85.235 103.891,70 121,70L369,70C386.109,70 400,85.235 400,104Z" style="fill:rgb(33,38,46);"/>
    </g>
    <g transform="matrix(1,0,0,1,-138.011,86.6667)">
        <g transform="matrix(266.667,0,0,266.667,170.011,512)">
            <path d="M0.185,0.11L0.185,-0.83L0.465,-0.83L0.465,-0.715L0.31,-0.715L0.31,-0.005L0.465,-0.005L0.465,0.11L0.185,0.11Z" style="fill:rgb(224,224,224);fill-rule:nonzero;"/>
        </g>
        <g transform="matrix(266.667,0,0,266.667,330.011,512)">
            <path d="M0.152,0.18L0.152,0.076L0.315,0.076C0.371,0.076 0.399,0.05 0.399,-0.003L0.399,-0.044L0.401,-0.147L0.399,-0.147C0.394,-0.111 0.378,-0.083 0.353,-0.063C0.328,-0.042 0.295,-0.032 0.255,-0.032C0.199,-0.032 0.155,-0.051 0.122,-0.089C0.089,-0.127 0.072,-0.178 0.072,-0.243L0.072,-0.35C0.072,-0.414 0.089,-0.465 0.122,-0.503C0.155,-0.541 0.199,-0.56 0.255,-0.56C0.295,-0.56 0.328,-0.55 0.353,-0.53C0.378,-0.509 0.394,-0.481 0.399,-0.445L0.401,-0.445L0.398,-0.55L0.523,-0.55L0.523,-0C0.523,0.056 0.505,0.1 0.468,0.132C0.431,0.164 0.381,0.18 0.317,0.18L0.152,0.18ZM0.297,-0.14C0.329,-0.14 0.354,-0.15 0.372,-0.169C0.389,-0.188 0.398,-0.214 0.398,-0.248L0.398,-0.344C0.398,-0.378 0.389,-0.405 0.372,-0.424C0.354,-0.443 0.329,-0.452 0.297,-0.452C0.265,-0.452 0.24,-0.443 0.223,-0.424C0.206,-0.405 0.197,-0.379 0.197,-0.344L0.197,-0.248C0.197,-0.213 0.206,-0.187 0.223,-0.168C0.24,-0.149 0.265,-0.14 0.297,-0.14Z" style="fill:rgb(224,224,224);fill-rule:nonzero;"/>
        </g>
        <g transform="matrix(266.667,0,0,266.667,490.011,512)">
            <path d="M0.389,-0C0.334,-0 0.291,-0.016 0.258,-0.049C0.225,-0.082 0.208,-0.125 0.208,-0.178L0.208,-0.617L0.027,-0.617L0.027,-0.73L0.333,-0.73L0.333,-0.181C0.333,-0.16 0.339,-0.144 0.351,-0.132C0.362,-0.119 0.378,-0.113 0.398,-0.113L0.559,-0.113L0.559,-0L0.389,-0Z" style="fill:rgb(224,224,224);fill-rule:nonzero;"/>
        </g>
        <g transform="matrix(266.667,0,0,266.667,650.011,512)">
            <path d="M0.3,0.009C0.229,0.009 0.173,-0.011 0.132,-0.05C0.091,-0.089 0.07,-0.141 0.07,-0.207L0.07,-0.343C0.07,-0.409 0.091,-0.462 0.132,-0.501C0.173,-0.54 0.229,-0.559 0.3,-0.559C0.371,-0.559 0.427,-0.54 0.468,-0.501C0.509,-0.462 0.53,-0.409 0.53,-0.344L0.53,-0.207C0.53,-0.141 0.509,-0.089 0.468,-0.05C0.427,-0.011 0.371,0.009 0.3,0.009ZM0.3,-0.1C0.333,-0.1 0.359,-0.109 0.378,-0.128C0.396,-0.146 0.405,-0.172 0.405,-0.207L0.405,-0.343C0.405,-0.378 0.396,-0.404 0.378,-0.423C0.359,-0.441 0.333,-0.45 0.3,-0.45C0.267,-0.45 0.241,-0.441 0.223,-0.423C0.204,-0.404 0.195,-0.378 0.195,-0.343L0.195,-0.207C0.195,-0.172 0.204,-0.146 0.223,-0.128C0.241,-0.109 0.267,-0.1 0.3,-0.1Z" style="fill:rgb(224,224,224);fill-rule:nonzero;"/>
        </g>
        <g transform="matrix(266.667,0,0,266.667,810.011,512)">
            <path d="M0.152,0.18L0.152,0.076L0.315,0.076C0.371,0.076 0.399,0.05 0.399,-0.003L0.399,-0.044L0.401,-0.147L0.399,-0.147C0.394,-0.111 0.378,-0.083 0.353,-0.063C0.328,-0.042 0.295,-0.032 0.255,-0.032C0.199,-0.032 0.155,-0.051 0.122,-0.089C0.089,-0.127 0.072,-0.178 0.072,-0.243L0.072,-0.35C0.072,-0.414 0.089,-0.465 0.122,-0.503C0.155,-0.541 0.199,-0.56 0.255,-0.56C0.295,-0.56 0.328,-0.55 0.353,-0.53C0.378,-0.509 0.394,-0.481 0.399,-0.445L0.401,-0.445L0.398,-0.55L0.523,-0.55L0.523,-0C0.523,0.056 0.505,0.1 0.468,0.132C0.431,0.164 0.381,0.18 0.317,0.18L0.152,0.18ZM0.297,-0.14C0.329,-0.14 0.354,-0.15 0.372,-0.169C0.389,-0.188 0.398,-0.214 0.398,-0.248L0.398,-0.344C0.398,-0.378 0.389,-0.405 0.372,-0.424C0.354,-0.443 0.329,-0.452 0.297,-0.452C0.265,-0.452 0.24,-0.443 0.223,-0.424C0.206,-0.405 0.197,-0.379 0.197,-0.344L0.197,-0.248C0.197,-0.213 0.206,-0.187 0.223,-0.168C0.24,-0.149 0.265,-0.14 0.297,-0.14Z" style="fill:rgb(224,224,224);fill-rule:nonzero;"/>
        </g>
        <g transform="matrix(266.667,0,0,266.667,970.011,512)">
            <path d="M0.135,0.11L0.135,-0.005L0.29,-0.005L0.29,-0.715L0.135,-0.715L0.135,-0.83L0.415,-0.83L0.415,0.11L0.135,0.11Z" style="fill:rgb(224,224,224);fill-rule:nonzero;"/>
        </g>
    </g>
</svg>
